<?xml version="1.0" encoding="UTF-8"?>
<svg xmlns="http://www.w3.org/2000/svg" xmlns:xlink="http://www.w3.org/1999/xlink" width="24pt" height="33pt" viewBox="0 0 24 33" version="1.1">
<defs>
<linearGradient id="linear0" gradientUnits="userSpaceOnUse" x1="0" y1="0" x2="1" y2="0" gradientTransform="matrix(9.925382,16.717362,-17.191266,9.651774,7.713766,10.093579)">
<stop offset="0" style="stop-color:rgb(0%,54.117647%,54.509804%);stop-opacity:1;"/>
<stop offset="0.597453" style="stop-color:rgb(0%,54.117647%,54.509804%);stop-opacity:1;"/>
<stop offset="1" style="stop-color:rgb(0%,48.235294%,50.980392%);stop-opacity:1;"/>
</linearGradient>
</defs>
<g id="surface1">
<path style=" stroke:none;fill-rule:nonzero;fill:rgb(0%,66.27451%,61.960784%);fill-opacity:1;" d="M 12.328125 9.429688 L 12.183594 10.503906 C 12.496094 10.542969 13.464844 10.738281 13.546875 10.132812 C 13.632812 9.5 12.640625 9.46875 12.328125 9.429688 "/>
<path style=" stroke:none;fill-rule:nonzero;fill:rgb(0%,66.27451%,61.960784%);fill-opacity:1;" d="M 13.34375 5.703125 C 13.960938 5.792969 14.542969 5.980469 15.078125 6.257812 C 15.21875 3.609375 14.65625 3.402344 14.65625 3.402344 C 14.65625 3.402344 13.925781 2.949219 12.695312 3.144531 C 12.425781 3.1875 12.179688 4.167969 11.957031 5.671875 C 12.414062 5.625 12.878906 5.632812 13.34375 5.703125 "/>
<path style=" stroke:none;fill-rule:nonzero;fill:rgb(0%,66.27451%,61.960784%);fill-opacity:1;" d="M 20.601562 6.796875 C 20.601562 6.796875 22.667969 8.992188 20.269531 13.992188 C 20.578125 14.230469 20.875 14.484375 21.160156 14.746094 C 22.578125 12.054688 22.953125 9.175781 20.601562 6.796875 "/>
<path style=" stroke:none;fill-rule:nonzero;fill:rgb(0%,66.27451%,61.960784%);fill-opacity:1;" d="M 22.378906 13.304688 C 22.378906 13.304688 22.253906 14.050781 21.671875 15.234375 C 21.734375 15.292969 21.792969 15.355469 21.851562 15.414062 C 22.128906 14.734375 22.316406 14.03125 22.378906 13.304688 "/>
<path style=" stroke:none;fill-rule:nonzero;fill:rgb(0%,66.27451%,61.960784%);fill-opacity:1;" d="M 6.484375 4.113281 C 6.484375 4.113281 1.152344 5.464844 3.117188 12.675781 C 3.523438 12.449219 3.945312 12.238281 4.378906 12.046875 C 3.0625 5.597656 6.484375 4.113281 6.484375 4.113281 "/>
<path style=" stroke:none;fill-rule:nonzero;fill:rgb(0%,66.27451%,61.960784%);fill-opacity:1;" d="M 7.140625 10.152344 C 7.320312 8.972656 7.894531 7.910156 8.773438 7.101562 C 9.304688 3.171875 10.835938 3.113281 10.835938 3.113281 C 10.835938 3.113281 4.9375 2.015625 6.1875 11.378906 C 6.480469 11.292969 6.78125 11.214844 7.082031 11.140625 C 7.070312 10.816406 7.085938 10.484375 7.140625 10.152344 "/>
<path style=" stroke:none;fill-rule:nonzero;fill:rgb(0%,66.27451%,61.960784%);fill-opacity:1;" d="M 1.933594 9.574219 C 1.519531 10.835938 1.546875 12.160156 1.851562 13.460938 C 1.992188 13.363281 2.136719 13.265625 2.285156 13.171875 C 1.625 10.851562 1.933594 9.574219 1.933594 9.574219 "/>
<path style=" stroke:none;fill-rule:nonzero;fill:rgb(0%,66.27451%,61.960784%);fill-opacity:1;" d="M 16.515625 3.984375 C 16.515625 3.984375 18.277344 4.464844 17.5625 8.90625 C 17.945312 9.789062 18.070312 10.761719 17.921875 11.734375 C 17.882812 11.964844 17.832031 12.1875 17.769531 12.40625 C 18.148438 12.597656 18.519531 12.804688 18.878906 13.023438 C 22.101562 4.925781 16.515625 3.984375 16.515625 3.984375 "/>
<path style=" stroke:none;fill-rule:nonzero;fill:rgb(0%,66.27451%,61.960784%);fill-opacity:1;" d="M 11.175781 10.730469 L 11.207031 10.511719 C 11.226562 10.515625 11.246094 10.515625 11.265625 10.519531 C 11.242188 10.511719 11.222656 10.511719 11.207031 10.507812 L 11.34375 9.503906 C 11.335938 9.390625 11.28125 9.257812 11.058594 9.226562 C 11.066406 9.222656 10.65625 9.175781 10.65625 9.175781 L 10.734375 8.601562 L 11.496094 8.699219 L 11.496094 8.703125 C 11.527344 8.707031 11.5625 8.710938 11.59375 8.714844 C 11.679688 8.726562 11.761719 8.734375 11.847656 8.742188 L 11.96875 7.863281 L 12.519531 7.933594 L 12.402344 8.796875 C 12.550781 8.8125 12.699219 8.828125 12.84375 8.847656 L 12.960938 7.988281 L 13.511719 8.0625 L 13.390625 8.941406 C 14.097656 9.09375 14.632812 9.382812 14.609375 10.023438 C 14.605469 10.074219 14.601562 10.117188 14.59375 10.160156 C 14.59375 10.183594 14.589844 10.207031 14.582031 10.230469 C 14.511719 10.570312 14.300781 10.769531 14.011719 10.867188 C 14.175781 10.929688 14.3125 11.003906 14.425781 11.101562 C 14.453125 11.128906 14.484375 11.160156 14.507812 11.1875 C 15.300781 11.386719 16.066406 11.644531 16.800781 11.953125 C 16.832031 11.832031 16.855469 11.707031 16.875 11.582031 C 17.050781 10.453125 16.765625 9.324219 16.066406 8.40625 C 15.996094 8.316406 15.925781 8.226562 15.847656 8.140625 C 15.835938 8.128906 15.828125 8.117188 15.816406 8.105469 C 15.742188 8.023438 15.664062 7.945312 15.585938 7.871094 C 15.574219 7.859375 15.558594 7.847656 15.546875 7.835938 C 15.464844 7.761719 15.382812 7.6875 15.296875 7.621094 C 15.289062 7.613281 15.277344 7.605469 15.269531 7.597656 C 15.1875 7.535156 15.101562 7.472656 15.011719 7.414062 C 15.003906 7.410156 14.996094 7.402344 14.988281 7.398438 C 14.921875 7.355469 14.855469 7.3125 14.789062 7.273438 C 14.78125 7.269531 14.773438 7.265625 14.765625 7.261719 C 14.707031 7.226562 14.648438 7.195312 14.585938 7.164062 C 14.570312 7.15625 14.550781 7.144531 14.53125 7.136719 C 14.480469 7.113281 14.433594 7.089844 14.382812 7.066406 C 14.359375 7.054688 14.332031 7.042969 14.308594 7.035156 C 14.261719 7.015625 14.21875 6.996094 14.171875 6.976562 C 14.144531 6.964844 14.117188 6.957031 14.089844 6.945312 C 14.042969 6.929688 14 6.914062 13.953125 6.898438 C 13.925781 6.890625 13.898438 6.878906 13.867188 6.871094 C 13.820312 6.855469 13.773438 6.84375 13.726562 6.832031 C 13.699219 6.824219 13.671875 6.816406 13.644531 6.808594 C 13.59375 6.796875 13.539062 6.785156 13.488281 6.773438 C 13.464844 6.765625 13.441406 6.761719 13.417969 6.757812 C 13.339844 6.742188 13.261719 6.726562 13.183594 6.714844 C 12.960938 6.683594 12.742188 6.667969 12.519531 6.667969 C 12.402344 6.667969 12.28125 6.671875 12.164062 6.683594 C 12.046875 6.691406 11.929688 6.707031 11.8125 6.722656 C 11.71875 6.738281 11.621094 6.757812 11.527344 6.78125 C 11.492188 6.789062 11.453125 6.796875 11.417969 6.808594 C 11.351562 6.824219 11.285156 6.84375 11.222656 6.863281 C 11.1875 6.871094 11.148438 6.882812 11.113281 6.894531 C 11.03125 6.921875 10.953125 6.953125 10.871094 6.984375 C 10.855469 6.988281 10.839844 6.996094 10.824219 7 C 10.730469 7.039062 10.640625 7.082031 10.550781 7.125 C 10.519531 7.140625 10.492188 7.15625 10.464844 7.171875 C 10.394531 7.207031 10.328125 7.242188 10.265625 7.28125 C 10.238281 7.296875 10.210938 7.3125 10.183594 7.332031 C 10.09375 7.386719 10.003906 7.441406 9.917969 7.503906 C 9.855469 7.550781 9.792969 7.597656 9.730469 7.648438 C 9.710938 7.664062 9.695312 7.679688 9.675781 7.691406 C 9.632812 7.730469 9.589844 7.765625 9.546875 7.804688 C 9.527344 7.820312 9.511719 7.835938 9.492188 7.855469 C 9.449219 7.894531 9.410156 7.933594 9.367188 7.972656 C 9.351562 7.988281 9.339844 8.003906 9.324219 8.019531 C 9.277344 8.066406 9.234375 8.113281 9.191406 8.160156 C 9.183594 8.167969 9.175781 8.179688 9.167969 8.1875 C 8.953125 8.4375 8.769531 8.703125 8.617188 8.992188 C 8.402344 9.398438 8.253906 9.839844 8.183594 10.304688 C 8.148438 10.515625 8.132812 10.726562 8.132812 10.933594 C 8.96875 10.796875 9.824219 10.722656 10.699219 10.722656 C 10.859375 10.722656 11.015625 10.726562 11.175781 10.730469 "/>
<path style=" stroke:none;fill-rule:nonzero;fill:rgb(0%,54.117647%,54.509804%);fill-opacity:1;" d="M 13.578125 11.832031 C 13.671875 11.136719 12.484375 11.089844 12.109375 11.042969 L 11.949219 12.226562 C 12.324219 12.273438 13.488281 12.5 13.578125 11.832031 "/>
<path style=" stroke:none;fill-rule:nonzero;fill:rgb(0%,66.27451%,61.960784%);fill-opacity:1;" d="M 11.175781 13.683594 L 11.1875 13.6875 C 11.195312 13.617188 11.199219 13.546875 11.203125 13.476562 Z M 11.175781 13.683594 "/>
<path style=" stroke:none;fill-rule:nonzero;fill:url(#linear0);" d="M 6.1875 11.378906 C 6.558594 14.136719 7.542969 17.796875 9.484375 22.660156 C 9.3125 22.6875 9.140625 22.71875 8.964844 22.757812 C 6.257812 18.1875 4.917969 14.699219 4.378906 12.046875 C 3.945312 12.238281 3.523438 12.449219 3.117188 12.675781 C 3.816406 15.25 5.449219 18.574219 8.589844 22.855469 C 8.507812 22.878906 8.421875 22.90625 8.339844 22.933594 C 4.539062 18.804688 2.9375 15.476562 2.285156 13.171875 C 2.136719 13.265625 1.992188 13.363281 1.851562 13.460938 C 2.902344 17.984375 7.28125 22.265625 8.085938 23.023438 C 8.085938 23.023438 8.742188 23.667969 8.875 24.25 L 8.722656 25.9375 L 8.359375 29.671875 L 12.070312 29.9375 L 12.414062 26.25 L 12.554688 24.679688 C 12.769531 24.453125 13.277344 23.921875 13.652344 23.5625 C 15.636719 22.390625 20.257812 19.335938 21.851562 15.414062 C 21.792969 15.355469 21.734375 15.292969 21.671875 15.234375 C 20.699219 17.214844 18.441406 20.421875 13.34375 23.371094 C 13.335938 23.367188 13.328125 23.363281 13.320312 23.355469 C 14.25 22.648438 18.960938 18.921875 21.160156 14.746094 C 20.875 14.484375 20.578125 14.230469 20.269531 13.992188 C 19.117188 16.390625 16.9375 19.4375 13.003906 23.195312 C 12.917969 23.15625 12.816406 23.113281 12.710938 23.066406 C 15.953125 18.871094 17.859375 15.589844 18.878906 13.023438 C 18.519531 12.804688 18.148438 12.597656 17.769531 12.40625 C 17.441406 13.527344 16.746094 14.507812 15.765625 15.210938 C 15.742188 15.226562 15.714844 15.242188 15.6875 15.261719 C 14.863281 17.382812 13.734375 19.898438 12.210938 22.886719 C 12.011719 22.824219 11.796875 22.769531 11.566406 22.722656 C 12.273438 20.238281 12.84375 18.078125 13.304688 16.191406 C 13.054688 16.226562 12.796875 16.246094 12.539062 16.246094 C 12.265625 16.246094 11.992188 16.226562 11.714844 16.1875 C 11.484375 16.152344 11.257812 16.101562 11.035156 16.042969 C 10.855469 18.972656 10.738281 21.539062 10.691406 22.609375 C 10.484375 22.597656 10.273438 22.597656 10.050781 22.609375 C 9.476562 19.589844 9.097656 17.035156 8.875 14.878906 C 8.605469 14.644531 8.359375 14.378906 8.140625 14.089844 C 7.480469 13.222656 7.121094 12.199219 7.082031 11.140625 C 6.78125 11.214844 6.480469 11.292969 6.1875 11.378906 M 9.109375 25.917969 L 9.25 24.335938 C 9.605469 24.28125 10.054688 24.246094 10.566406 24.289062 L 10.410156 26.027344 Z M 10.738281 26.054688 L 10.890625 24.324219 C 11.410156 24.398438 11.839844 24.535156 12.171875 24.667969 L 12.039062 26.167969 Z M 10.738281 26.054688 "/>
<path style=" stroke:none;fill-rule:nonzero;fill:rgb(0%,54.117647%,54.509804%);fill-opacity:1;" d="M 8.710938 13.0625 C 8.753906 13.132812 8.792969 13.199219 8.839844 13.265625 C 8.839844 13.269531 8.84375 13.273438 8.847656 13.277344 C 8.894531 13.347656 8.941406 13.414062 8.992188 13.480469 C 9.050781 13.5625 9.113281 13.636719 9.179688 13.710938 C 9.195312 13.730469 9.210938 13.746094 9.222656 13.761719 C 9.289062 13.835938 9.355469 13.90625 9.425781 13.976562 C 9.429688 13.980469 9.4375 13.984375 9.441406 13.988281 C 9.507812 14.054688 9.582031 14.117188 9.652344 14.179688 C 9.664062 14.1875 9.675781 14.199219 9.691406 14.207031 C 9.769531 14.273438 9.847656 14.335938 9.929688 14.394531 C 9.933594 14.398438 9.9375 14.398438 9.941406 14.402344 C 10.023438 14.460938 10.109375 14.519531 10.199219 14.570312 C 10.203125 14.574219 10.207031 14.578125 10.210938 14.578125 C 10.304688 14.632812 10.398438 14.6875 10.492188 14.734375 C 10.585938 14.78125 10.675781 14.824219 10.769531 14.863281 C 10.792969 14.871094 10.820312 14.882812 10.84375 14.890625 C 10.914062 14.921875 10.988281 14.949219 11.0625 14.972656 C 11.074219 14.976562 11.089844 14.984375 11.101562 14.988281 C 11.113281 14.992188 11.125 14.996094 11.136719 14.996094 C 11.25 15.035156 11.363281 15.066406 11.480469 15.09375 C 11.480469 15.097656 11.484375 15.097656 11.488281 15.097656 C 11.613281 15.128906 11.742188 15.152344 11.871094 15.171875 C 11.945312 15.183594 12.015625 15.191406 12.089844 15.199219 C 12.132812 15.203125 12.179688 15.207031 12.222656 15.207031 C 12.25 15.210938 12.277344 15.214844 12.304688 15.214844 C 12.363281 15.21875 12.425781 15.21875 12.484375 15.21875 C 12.496094 15.21875 12.507812 15.21875 12.519531 15.21875 C 12.585938 15.21875 12.652344 15.21875 12.722656 15.214844 C 12.726562 15.214844 12.726562 15.214844 12.730469 15.214844 C 13.007812 15.203125 13.285156 15.167969 13.554688 15.101562 C 13.558594 15.101562 13.5625 15.101562 13.566406 15.101562 C 13.847656 15.035156 14.121094 14.941406 14.382812 14.820312 C 14.445312 14.792969 14.507812 14.765625 14.566406 14.734375 C 14.570312 14.730469 14.574219 14.730469 14.582031 14.726562 C 14.636719 14.699219 14.691406 14.667969 14.746094 14.636719 C 14.753906 14.632812 14.761719 14.628906 14.773438 14.621094 C 14.820312 14.59375 14.871094 14.5625 14.921875 14.53125 C 14.933594 14.523438 14.945312 14.515625 14.957031 14.507812 C 15.019531 14.46875 15.078125 14.425781 15.140625 14.382812 C 15.980469 13.78125 16.558594 12.929688 16.800781 11.953125 C 16.066406 11.644531 15.300781 11.386719 14.507812 11.1875 C 14.683594 11.394531 14.746094 11.679688 14.652344 12.078125 C 14.5625 12.476562 14.359375 12.714844 14.074219 12.851562 C 13.753906 13.003906 13.332031 13.027344 12.839844 12.992188 L 12.71875 13.882812 L 12.167969 13.8125 L 12.289062 12.933594 C 12.144531 12.914062 12 12.894531 11.847656 12.875 L 11.726562 13.753906 L 11.1875 13.6875 L 11.175781 13.683594 L 11.203125 13.476562 L 11.296875 12.792969 C 11.28125 12.789062 11.265625 12.789062 11.253906 12.785156 C 11.136719 12.769531 11.023438 12.753906 10.902344 12.738281 L 10.183594 12.644531 L 10.382812 12.019531 C 10.382812 12.019531 10.789062 12.078125 10.78125 12.070312 C 10.9375 12.089844 10.996094 11.988281 11.015625 11.917969 L 11.175781 10.730469 C 11.015625 10.726562 10.859375 10.722656 10.699219 10.722656 C 9.824219 10.722656 8.96875 10.796875 8.132812 10.933594 C 8.128906 11.679688 8.328125 12.410156 8.710938 13.0625 "/>
</g>
</svg>
